<?xml version="1.0" encoding="utf-8"?>
<!-- Generator: Adobe Illustrator 18.1.0, SVG Export Plug-In . SVG Version: 6.00 Build 0)  -->
<!DOCTYPE svg PUBLIC "-//W3C//DTD SVG 1.1//EN" "http://www.w3.org/Graphics/SVG/1.1/DTD/svg11.dtd">
<svg version="1.1" id="Layer_1" xmlns="http://www.w3.org/2000/svg" xmlns:xlink="http://www.w3.org/1999/xlink" x="0px" y="0px"
	 viewBox="0 0 30 18" enable-background="new 0 0 30 18" xml:space="preserve">
<g id="Layer_1_1_">
	<g>
		<path fill="#FFFFFF" d="M3.8,0H0v11.8L2.5,1.2C2.5,0.6,3.1,0,3.8,0z"/>
		<path fill="#FFFFFF" d="M26.2,0c0.7,0,1.2,0.6,1.2,1.2L30,11.8V0H26.2z"/>
	</g>
</g>
<g>
	<path fill="#FFFFFF" d="M26.2,1.9c0-0.4-0.2-0.6-0.6-0.6H4.4C4,1.2,3.8,1.5,3.8,1.9l-1.9,9.2c0,0.4,0.2,0.6,0.6,0.6h25
		c0.4,0,0.6-0.2,0.6-0.6L26.2,1.9z M17.9,10.1h-1.7v-3h-2.8v3h-1.7V2.9h1.7v2.7h2.8V2.9h1.7V10.1z"/>
</g>
</svg>
